<?xml version="1.0" encoding="UTF-8"?>
<svg version="1.1" xmlns="http://www.w3.org/2000/svg" width="2744" height="1075">
<path d="M0 0 C1.72407726 -0.01126902 1.72407726 -0.01126902 3.48298436 -0.0227657 C6.66628291 -0.04040217 9.84926797 -0.04463695 13.03260458 -0.04298936 C16.48176926 -0.04436031 19.93085204 -0.06273002 23.37997437 -0.07868671 C30.17218539 -0.10715607 36.96432795 -0.11876277 43.75659271 -0.12413148 C49.33748475 -0.12873546 54.91833996 -0.13904896 60.49921608 -0.15304756 C81.90698747 -0.20593362 103.3146302 -0.22112509 124.72246162 -0.21763978 C130.94356184 -0.21678682 137.16465793 -0.21840906 143.38575745 -0.22131729 C315.84633741 -0.29812238 315.84633741 -0.29812238 429.10232544 6.04989624 C442.5820742 6.90179237 456.05955159 7.64863301 469.55305481 8.23745728 C470.31237179 8.27067672 471.07168877 8.30389616 471.85401535 8.33812225 C479.24810129 8.66041687 486.64254134 8.97273784 494.03767967 9.26990718 C518.29247193 10.24895361 518.29247193 10.24895361 530.35774231 11.36221313 C531.15737396 11.43437388 531.95700562 11.50653463 532.78086853 11.58088207 C573.62422476 15.70557347 614.59848543 39.55854045 644.14680481 67.17739868 C646.11487836 69.00170063 648.11466703 70.75134926 650.15071106 72.49771118 C654.98187299 76.7127396 659.5295863 81.1983195 664.06159973 85.73110962 C665.47973765 87.1470669 666.90602146 88.55485032 668.33235168 89.96255493 C674.5135774 96.13089415 680.15596279 102.54610299 685.55305481 109.40786743 C686.12757385 110.12845337 686.7020929 110.84903931 687.29402161 111.59146118 C699.71081587 127.25262523 710.17062553 143.77710448 719.55305481 161.40786743 C719.89932922 162.04982056 720.24560364 162.69177368 720.60237122 163.35317993 C733.3628509 187.14453747 741.93421147 212.83083562 747.36555481 239.22036743 C747.56060608 240.16073853 747.75565735 241.10110962 747.95661926 242.06997681 C750.95388602 257.54417622 751.93868853 273.11240017 751.86555481 288.84536743 C751.86282059 290.08819992 751.86282059 290.08819992 751.86003113 291.35614014 C751.55986725 373.68024035 731.45196159 463.73260481 676.55305481 527.40786743 C675.61947908 528.52398213 674.68726944 529.64124043 673.75617981 530.75942993 C663.96321745 542.45194463 653.61603019 553.01707014 641.55305481 562.40786743 C640.27431231 563.42727744 638.99567341 564.4468174 637.71711731 565.46646118 C619.30648945 579.99980086 599.02339517 591.60853092 577.43977356 600.75820923 C573.76020064 602.33344306 570.71508808 603.91192834 567.55305481 606.40786743 C566.89305481 606.40786743 566.23305481 606.40786743 565.55305481 606.40786743 C562.96787468 611.39357196 561.25262567 615.5306108 561.17805481 621.22036743 C561.14969543 622.19618774 561.12133606 623.17200806 561.09211731 624.17739868 C562.15588578 631.63279296 567.0878285 637.9615078 571.26789856 644.04849243 C571.82663162 644.871297 572.38536469 645.69410156 572.96102905 646.5418396 C574.16811963 648.31899721 575.37724827 650.09477189 576.58821106 651.86929321 C579.87829599 656.69210508 583.15139359 661.52641014 586.42414856 666.36099243 C587.10073517 667.36005615 587.77732178 668.35911987 588.47441101 669.38845825 C595.42522064 679.66846997 602.24549022 690.0326866 609.05305481 700.40786743 C618.61828568 714.97776057 628.2820851 729.47515545 638.05305481 743.90786743 C648.44125341 759.25228901 658.69467165 774.67889653 668.86555481 790.16812134 C677.83010498 803.81539316 686.89943021 817.38675551 696.05305481 830.90786743 C707.34102696 847.58262385 718.4847577 864.34735375 729.53279114 881.18203735 C730.70872141 882.97352232 731.88474472 884.76494622 733.06086731 886.55630493 C733.62422287 887.41438248 734.18757843 888.27246002 734.76800537 889.15653992 C738.09510076 894.21585349 741.45511525 899.2506342 744.85774231 904.25942993 C745.2454631 904.83202042 745.6331839 905.4046109 746.03265381 905.99455261 C747.73253629 908.50441871 749.43987201 911.00820826 751.16560364 913.50039673 C756.01097439 920.63610533 758.26052952 926.18131311 757.08039856 934.91958618 C755.60144667 941.89804808 752.54142091 945.97727967 746.84602356 950.18130493 C741.41049741 953.08889473 735.88929862 953.70200009 729.82444763 953.66856384 C729.07752667 953.67238939 728.3306057 953.67621494 727.56105077 953.68015641 C725.07475129 953.69042069 722.58868558 953.68650686 720.10237122 953.68252563 C718.31300647 953.68687576 716.52364358 953.69205992 714.73428345 953.69801331 C709.8850537 953.71138249 705.035902 953.71198426 700.18665743 953.70945001 C696.13357779 953.70837884 692.08051384 953.71326743 688.02743757 953.71805543 C678.46272247 953.72914352 668.89804666 953.72959201 659.33332825 953.72354126 C649.47729155 953.71750193 639.62139762 953.72981306 629.76538527 953.75111133 C621.29297751 953.76874422 612.82061513 953.774726 604.34818971 953.77147359 C599.29259443 953.76966321 594.23710098 953.77227242 589.18152237 953.78618813 C584.42575127 953.79878922 579.67020224 953.79680078 574.91443443 953.78377724 C573.17342109 953.78141684 571.432392 953.78412684 569.69139671 953.79240036 C550.64662725 953.87634771 550.64662725 953.87634771 542.27180481 948.17349243 C539.19606281 945.0447204 537.16665611 941.97175777 535.05305481 938.15786743 C534.63636536 937.42898315 534.2196759 936.70009888 533.7903595 935.9491272 C532.36368634 933.44313803 530.95703457 930.92663663 529.55305481 928.40786743 C528.4646164 926.4637992 527.37607016 924.51979134 526.28742981 922.57583618 C524.5252242 919.42646871 522.76456364 916.27628018 521.00813293 913.12368774 C516.93993963 905.83465894 512.77987805 898.60591621 508.55305481 891.40786743 C503.13848673 882.18355287 497.8667471 872.88772134 492.65803528 863.54580688 C487.56680872 854.41649001 482.39263006 845.33691829 477.19270325 836.26919556 C474.39730555 831.39098516 471.60934606 826.50852489 468.8205719 821.62652588 C467.11189981 818.63550416 465.40276507 815.64474683 463.69367981 812.65396118 C463.00162033 811.44286217 462.30956304 810.23176191 461.61750793 809.0206604 C461.10474304 808.12332184 461.10474304 808.12332184 460.58161926 807.20785522 C457.53547669 801.87710572 457.53547669 801.87710572 456.53495789 800.12619019 C455.87002931 798.96257027 455.20509198 797.79895536 454.54014587 796.63534546 C452.87936656 793.72907067 451.21874028 790.82270864 449.5584259 787.91616821 C446.5421596 782.63625023 443.52475758 777.35699727 440.50175476 772.08093262 C438.80977641 769.12783727 437.11868017 766.17423754 435.42805481 763.22036743 C435.09549683 762.63936279 434.76293884 762.05835815 434.42030334 761.45974731 C429.70635582 753.22001592 425.04937486 744.94989902 420.42805481 736.65786743 C415.33458754 727.52001146 410.11165021 718.46671947 404.81355286 709.44619751 C400.5280844 702.13067268 396.36412185 694.75318648 392.24055481 687.34536743 C386.4469578 676.95514501 386.4469578 676.95514501 380.49055481 666.65786743 C379.83957825 665.54927368 379.18860168 664.44067993 378.51789856 663.29849243 C375.04476126 658.18890674 370.84014743 653.86730925 364.88060379 651.83852005 C361.55104799 651.22247204 358.24837073 651.26339949 354.87477112 651.26742554 C353.70817361 651.26296885 353.70817361 651.26296885 352.51800847 651.25842214 C349.90956251 651.24974424 347.3011625 651.24822765 344.69270325 651.24673462 C342.82334292 651.24210579 340.95398353 651.23708104 339.08462524 651.23168945 C334.00390884 651.21856942 328.92320564 651.21212122 323.84247494 651.20767879 C320.66774505 651.20474734 317.49301878 651.20064238 314.31829071 651.19617462 C304.3838753 651.18250053 294.44946814 651.17283353 284.51504397 651.16897273 C273.04992936 651.16449251 261.584934 651.14694589 250.11985564 651.11797214 C241.25602657 651.0963502 232.39223103 651.08626817 223.52837586 651.08493161 C218.23522244 651.08388392 212.94218113 651.07798378 207.64905548 651.060112 C202.66845023 651.0436226 197.68804127 651.04148008 192.70741844 651.05025101 C190.88213004 651.05102092 189.05683105 651.04668468 187.23156929 651.03679276 C184.73390477 651.02405353 182.2369334 651.02996054 179.73927307 651.04037476 C179.02213316 651.03231835 178.30499324 651.02426195 177.56612182 651.01596141 C171.54231903 651.07444181 166.05033444 652.36740725 161.31086731 656.23989868 C160.77203918 656.89345337 160.23321106 657.54700806 159.67805481 658.22036743 C159.12375793 658.86618774 158.56946106 659.51200806 157.99836731 660.17739868 C154.08955612 666.20964514 154.26964853 672.27088085 154.30149841 679.20518494 C154.29852827 680.29426987 154.29555814 681.38335481 154.29249799 682.50544232 C154.28485798 686.1556694 154.29135214 689.80573557 154.29768372 693.45596313 C154.29493383 696.07275502 154.29125394 698.68954606 154.28671265 701.30633545 C154.2780863 706.94238953 154.27626994 712.57841221 154.27865982 718.21447182 C154.28175998 726.37303561 154.2701096 734.53153014 154.25411002 742.69007649 C154.22815498 755.94032027 154.20813296 769.1905641 154.19465637 782.44082642 C154.19344082 783.62993693 154.19344082 783.62993693 154.19220071 784.84306987 C154.18098195 796.09014928 154.17569856 807.33722374 154.17281358 818.58430799 C154.17260959 819.37613876 154.1724056 820.16796953 154.17219543 820.98379517 C154.1719955 821.77465802 154.17179556 822.56552087 154.17158957 823.38034926 C154.16785399 836.57803508 154.14875069 849.77564577 154.11710107 862.97329396 C154.09820687 871.1086626 154.09221236 879.24383838 154.10291825 887.37922289 C154.10999585 893.61638496 154.09643805 899.85334647 154.07530022 906.09047318 C154.06997684 908.64582135 154.07147744 911.20119431 154.08033562 913.75653267 C154.09146153 917.24787695 154.07801811 920.73831024 154.05857849 924.229599 C154.06770315 925.2381739 154.07682781 926.24674881 154.08622897 927.28588659 C154.0091485 934.41185386 152.7778554 940.80921813 147.89096701 946.26263982 C140.00564535 953.81185047 131.0168777 953.84464254 120.66072083 953.79605103 C119.26529023 953.80012215 117.86986286 953.80546706 116.47444153 953.8119812 C112.70368887 953.82559772 108.93318389 953.82037943 105.16242719 953.81084394 C101.20416454 953.80321632 97.24592223 953.81030168 93.28765869 953.81500244 C86.64097817 953.82045163 79.99439783 953.81329108 73.34773254 953.79898071 C65.68029638 953.78266249 58.01309967 953.78793999 50.34566933 953.80445993 C43.74582587 953.81810674 37.14605419 953.81997869 30.54620117 953.81214392 C26.61180097 953.80748405 22.67751303 953.80679571 18.74312019 953.81675339 C15.04199483 953.82546723 11.34117584 953.81932132 7.64008331 953.80207062 C5.64637159 953.79625968 3.65263373 953.80508396 1.65893555 953.81445312 C-6.82956477 953.75481345 -13.5982807 952.94943832 -20.75944519 948.22036743 C-25.86304055 942.87939554 -28.56933171 936.58877397 -28.57459569 929.18321639 C-28.57761166 928.34085102 -28.58062763 927.49848564 -28.58373499 926.63059404 C-28.58196552 925.70834133 -28.58019605 924.78608862 -28.57837296 923.83588886 C-28.58042559 922.849648 -28.58247822 921.86340713 -28.58459306 920.84728017 C-28.5902831 917.51633341 -28.58880334 914.18542772 -28.58738708 910.85447693 C-28.58996957 908.45267984 -28.5929824 906.05088319 -28.59639049 903.64908713 C-28.60362824 897.72359448 -28.60616378 891.79811019 -28.60671954 885.87261415 C-28.60763273 878.77685162 -28.61429894 871.68109745 -28.62106637 864.58533851 C-28.6371333 847.43419336 -28.64303039 830.28304909 -28.64781511 813.13189777 C-28.65015032 805.01974753 -28.65375289 796.907598 -28.65751049 788.79544831 C-28.67034649 761.03175597 -28.68106573 733.26806403 -28.68451309 705.50436878 C-28.68473473 703.76122452 -28.68495651 702.01808026 -28.68517844 700.274936 C-28.68539908 698.52755909 -28.68561957 696.78018218 -28.68583989 695.03280526 C-28.68628245 691.52721075 -28.68672956 688.02161624 -28.68717957 684.51602173 C-28.68728896 683.64683682 -28.68739835 682.7776519 -28.68751105 681.88212805 C-28.69114214 653.69520151 -28.70706389 625.50830068 -28.73036993 597.32138399 C-28.75496009 567.52698638 -28.76868555 537.73260346 -28.76988101 507.93819541 C-28.77005247 504.66816977 -28.7702679 501.39814414 -28.77051544 498.12811852 C-28.77057121 497.32293459 -28.77062698 496.51775067 -28.77068444 495.68816724 C-28.77183558 482.72455958 -28.78286297 469.76097829 -28.7974025 456.79737954 C-28.81176136 443.76968992 -28.81500793 430.74203412 -28.80696252 417.71433876 C-28.8025034 409.97324894 -28.80637811 402.23226826 -28.82220103 394.49119276 C-28.83308751 388.71287318 -28.82831888 382.93465145 -28.81742916 377.15633579 C-28.81546374 374.81714368 -28.81858932 372.4779407 -28.82727352 370.13876388 C-28.83832213 366.96200306 -28.83090821 363.78579694 -28.81888199 360.6090517 C-28.82647718 359.69850482 -28.83407238 358.78795795 -28.84189773 357.84981874 C-28.78051921 350.35186846 -27.2607598 342.38363729 -22.44694519 336.40786743 C-16.89068836 332.30765275 -12.4574551 330.28814936 -5.48339844 330.26069641 C-3.61399094 330.24996346 -3.61399094 330.24996346 -1.70681763 330.23901367 C-0.32307459 330.23617342 1.06066872 330.23346169 2.44441223 330.23086548 C3.89983787 330.2245998 5.35526191 330.2179529 6.8106842 330.21095276 C11.59328601 330.18991961 16.3758881 330.17955 21.15852356 330.16958618 C22.806115 330.16553813 24.45370628 330.16142119 26.10129738 330.1572361 C33.84337213 330.13818482 41.58543736 330.12395455 49.32753104 330.11562413 C58.25766292 330.10585629 67.18754663 330.07954848 76.11759108 330.03912324 C83.02387868 330.00893487 89.93009525 329.99415262 96.83644754 329.99084312 C100.95931626 329.98849541 105.08191983 329.97957187 109.20471764 329.95438194 C113.08636012 329.93104887 116.9675639 329.92688877 120.84925842 329.93714333 C122.26980361 329.93763756 123.69037078 329.93135036 125.11084938 329.91758728 C133.91482378 329.83709471 140.94741462 329.9355952 147.57649231 336.37271118 C148.02250793 337.02368774 148.46852356 337.67466431 148.92805481 338.34536743 C149.38953918 338.99376587 149.85102356 339.64216431 150.32649231 340.31021118 C152.65618158 344.294425 153.80274918 347.69749808 153.80461121 352.32115173 C153.81268547 353.76556137 153.81268547 353.76556137 153.82092285 355.239151 C153.81679886 356.28394119 153.81267487 357.32873138 153.8084259 358.40518188 C153.81385658 360.06949249 153.81385658 360.06949249 153.81939697 361.76742554 C153.82628586 364.17478425 153.82879736 366.58215856 153.8274498 368.98952675 C153.82648445 372.80219199 153.83942851 376.6145754 153.85643005 380.42720032 C153.90269817 391.26668711 153.92738801 402.10612971 153.93391418 412.94570923 C153.93807581 419.57812493 153.96319594 426.21028146 153.99924088 432.84261131 C154.00903326 435.36749697 154.01137392 437.89242309 154.00606918 440.41732216 C153.99899037 443.95265692 154.01629952 447.48711721 154.03889465 451.02236938 C154.0307222 452.06108688 154.02254974 453.09980438 154.01412964 454.16999817 C154.07814032 459.81118433 154.72288884 463.86497984 157.5984745 468.7651701 C158.55305481 470.40786743 158.55305481 470.40786743 159.55305481 473.40786743 C161.25074715 474.50955727 161.25074715 474.50955727 163.55305481 475.40786743 C164.55305008 475.91581345 165.55304535 476.42375946 166.58334351 476.94709778 C171.16610181 478.89779206 175.524635 478.82181086 180.44343567 478.78018188 C181.41408463 478.78383255 182.38473358 478.78748322 183.38479614 478.79124451 C186.59600875 478.79934588 189.80671466 478.78571021 193.01789856 478.77114868 C195.28861491 478.77062866 197.5593317 478.77115185 199.83004761 478.7726593 C204.61074993 478.77256951 209.39128397 478.76215032 214.17195129 478.74404907 C220.17228529 478.72178234 226.17236697 478.72092724 232.17273045 478.72730446 C254.44953102 478.74517107 276.70016844 478.62988613 298.95149231 477.48208618 C299.74398314 477.44123713 300.53647396 477.40038807 301.35297966 477.35830116 C312.00738018 476.79200002 322.61994582 475.92435088 333.24055481 474.90786743 C355.8410032 472.74774718 378.44927558 471.65410702 401.13899231 470.91177368 C402.42494293 470.86955185 403.71089355 470.82733002 405.03581238 470.78382874 C411.44215712 470.57559976 417.84860349 470.37672801 424.25569153 470.19277954 C468.25455346 468.8749371 503.54242533 462.86596106 538.55305481 434.40786743 C539.29039856 433.83681274 540.02774231 433.26575806 540.78742981 432.67739868 C561.20162701 416.14189895 570.17302317 389.18632303 575.55305481 364.40786743 C575.71821594 363.64973755 575.88337708 362.89160767 576.05354309 362.11050415 C578.56581583 349.87129329 578.85931863 337.60520478 578.92805481 325.15786743 C578.93600067 324.40490387 578.94394653 323.65194031 578.95213318 322.87615967 C579.2357006 287.90205047 566.67095216 256.4906251 543.55305481 230.40786743 C542.81957825 229.57900024 542.08610168 228.75013306 541.33039856 227.89614868 C519.02633734 204.17713867 486.67732876 194.81012929 455.55305481 189.40786743 C454.69163879 189.25479126 453.83022278 189.10171509 452.94270325 188.94400024 C441.01427107 186.88896644 429.03082229 186.04119159 416.95913696 185.39494324 C416.17810338 185.35235284 415.39706979 185.30976244 414.59236852 185.26588143 C398.2604219 184.380558 381.92588569 183.78886965 365.57606293 183.36152263 C363.24000732 183.30043565 360.90399566 183.2378107 358.56798112 183.17517459 C322.87022824 182.22926824 287.17836219 182.10765443 251.47007998 182.10253168 C242.38691863 182.1005091 233.3037938 182.08447892 224.22065016 182.06741201 C208.03206044 182.03707071 191.84346939 182.01266119 175.65486145 181.99453735 C174.22208838 181.99292833 174.22208838 181.99292833 172.7603704 181.99128681 C162.02360292 181.9793805 151.28683493 181.96916919 140.55006409 181.96084595 C136.60550434 181.95776827 132.66094461 181.95468015 128.71638489 181.9515686 C127.25499914 181.95042059 127.25499914 181.95042059 125.76409046 181.94924939 C109.5290623 181.93617816 93.29407464 181.9115957 77.05907649 181.8778252 C67.11350721 181.85762289 57.1680244 181.84723349 47.22243442 181.84981441 C40.45588431 181.85084773 33.6894035 181.8412412 26.92287759 181.82317538 C23.02686006 181.81313263 19.13099595 181.80800173 15.23497009 181.81594276 C11.01544529 181.8244426 6.79631264 181.8099025 2.57681274 181.7931366 C0.73374777 181.80245432 0.73374777 181.80245432 -1.14655083 181.81196028 C-10.24066237 181.74588402 -16.10413204 180.20858832 -22.93913269 174.01724243 C-27.87781444 168.74590336 -28.56730423 162.42410618 -28.58738708 155.51425171 C-28.59309723 154.33398911 -28.59880737 153.1537265 -28.60469055 151.93769836 C-28.60580841 150.65136002 -28.60692627 149.36502167 -28.608078 148.03970337 C-28.61270995 146.66442228 -28.61773511 145.28914247 -28.62312317 143.91386414 C-28.63621333 140.18433649 -28.64268556 136.45482682 -28.64713383 132.72527981 C-28.65007015 130.39227242 -28.65417602 128.05926989 -28.658638 125.72626495 C-28.67230431 118.41828204 -28.68197508 111.11031028 -28.68583989 103.80231547 C-28.69031801 95.38220946 -28.70785804 86.96226599 -28.73684049 78.54220939 C-28.75849644 72.02312254 -28.76854626 65.5040813 -28.76988101 58.98495889 C-28.77092628 55.09632117 -28.77677456 51.20783642 -28.79470062 47.31923676 C-28.81124912 43.65840135 -28.81330424 39.99783281 -28.80456161 36.33697319 C-28.80343124 34.36467921 -28.81709628 32.39239381 -28.83131409 30.42015076 C-28.79121374 21.84052471 -28.19057045 13.67066737 -22.19694519 7.03286743 C-21.65553894 6.40638306 -21.11413269 5.77989868 -20.55632019 5.13442993 C-14.22388917 -0.04878212 -7.84825854 -0.02912701 0 0 Z " fill="#000000" transform="translate(1196.4469451904297,38.592132568359375)"/>
<path d="M0 0 C7.88576688 4.08692249 15.79002415 8.13758975 23.69523621 12.18673706 C27.82966531 14.30452957 31.96341674 16.42364362 36.09709167 18.54290771 C37.31848846 19.16908241 37.31848846 19.16908241 38.56455994 19.8079071 C47.5261284 24.40314597 56.48132799 29.01074696 65.43632507 33.61877441 C77.09126347 39.61579889 88.75301883 45.59943727 100.41740417 51.57806396 C113.05115814 58.05360662 125.67779144 64.54269732 138.29594421 71.04858398 C149.57859301 76.86539645 160.87103444 82.6629468 172.16740417 88.45306396 C184.62981981 94.84097783 197.08933358 101.23444911 209.54240417 107.64056396 C210.2583374 108.00884308 210.97427063 108.37712219 211.7118988 108.75656128 C217.45427904 111.71056408 223.19634867 114.66517045 228.93840027 117.61981201 C233.97291985 120.21035114 239.00756764 122.80064088 244.04240417 125.39056396 C244.75819641 125.75877258 245.47398865 126.1269812 246.21147156 126.50634766 C257.90036789 132.51868885 269.59529365 138.5192217 281.29240417 144.51556396 C297.30046701 152.72184906 313.30084839 160.94295102 329.29631042 169.17376709 C335.21904356 172.22120426 341.14325511 175.26575925 347.06797791 178.30932617 C350.77243626 180.21259215 354.47614929 182.11728008 358.17814636 184.02532959 C359.61205315 184.7642861 361.0459723 185.50321864 362.47990417 186.24212646 C363.17883789 186.60231873 363.87777161 186.96251099 364.59788513 187.33361816 C368.62656344 189.40758096 372.66189081 191.46769219 376.70475769 193.51385498 C378.57020202 194.45892076 380.43359278 195.40791021 382.29631042 196.3583374 C384.52945833 197.49674381 386.76611653 198.62830749 389.00724792 199.75091553 C398.10450124 204.40784282 406.8875699 209.88390503 413.79240417 217.51556396 C414.46787292 218.18716553 415.14334167 218.85876709 415.83927917 219.55072021 C431.01541693 235.21066102 434.98243279 255.48974411 434.91265869 276.60165405 C434.91351312 277.56574955 434.91436754 278.52984505 434.91524786 279.52315557 C434.91688368 282.72588535 434.91141261 285.92856174 434.90592957 289.13128662 C434.90564726 291.43815103 434.90580628 293.74501553 434.90637207 296.05187988 C434.90665834 302.29489817 434.90078909 308.53789715 434.89379811 314.78091097 C434.88753627 321.31252729 434.88695854 327.84414408 434.88577271 334.37576294 C434.88318678 345.33236017 434.87677896 356.28895065 434.86784363 367.24554443 C434.85865314 378.52679408 434.85158032 389.8080418 434.84733582 401.08929443 C434.84707309 401.78562416 434.84681037 402.48195389 434.84653968 403.19938453 C434.84523457 406.69295084 434.84397088 410.18651717 434.84272778 413.68008351 C434.83237484 442.62524833 434.81469899 471.57040598 434.79240417 500.51556396 C434.09170303 500.87860626 433.39100189 501.24164856 432.66906738 501.61569214 C429.43487276 503.29216171 426.20152597 504.97026031 422.96818542 506.64837646 C421.86639954 507.21918945 420.76461365 507.79000244 419.62944031 508.37811279 C412.70419391 511.97408559 405.82115964 515.63728923 398.97990417 519.39056396 C397.9833783 519.93648193 396.98685242 520.4823999 395.96012878 521.04486084 C395.1713031 521.47863037 394.38247742 521.9123999 393.56974792 522.35931396 C387.08375959 525.91290952 380.56420437 529.40326587 374.04240417 532.89056396 C371.65694855 534.16653282 369.27154667 535.44260211 366.88615417 536.71868896 C365.99966942 537.19287262 365.99966942 537.19287262 365.09527588 537.67663574 C349.64557745 545.94287809 334.2300515 554.27261887 318.82609558 562.62371826 C308.25370421 568.35353502 297.66446276 574.05195122 287.07463074 579.74945068 C281.64653868 582.67021965 276.21952276 585.59298671 270.79240417 588.51556396 C268.62574274 589.68224034 266.45907607 590.848907 264.29240417 592.01556396 C262.68365417 592.88181396 262.68365417 592.88181396 261.04240417 593.76556396 C225.29240417 613.01556397 225.29240417 613.01556397 222.04142761 614.76605225 C219.87797433 615.93101364 217.71456277 617.09605252 215.55119324 618.26116943 C210.08570387 621.20456833 204.61946266 624.14655513 199.15177917 627.08587646 C189.05817931 632.51362311 178.97183413 637.95304699 168.91740417 643.45306396 C158.86655013 648.94973982 148.77086117 654.36150169 138.66947937 659.76452637 C137.78286621 660.23877045 137.78286621 660.23877045 136.87834167 660.72259521 C136.28694397 661.03891907 135.69554626 661.35524292 135.08622742 661.68115234 C128.94077954 664.9692846 122.80337671 668.27229251 116.66740417 671.57806396 C115.07073914 672.43827148 115.07073914 672.43827148 113.44181824 673.31585693 C111.29789581 674.47105202 109.1540155 675.62632527 107.01017761 676.78167725 C101.60494981 679.69426661 96.1986185 682.60480626 90.79240417 685.51556396 C88.62573228 686.68222093 86.45906561 687.84888759 84.29240417 689.01556396 C71.29240417 696.01556397 71.29240417 696.01556397 68.04142761 697.76605225 C65.87797433 698.93101364 63.71456277 700.09605252 61.55119324 701.26116943 C56.08570387 704.20456833 50.61946266 707.14655513 45.15177917 710.08587646 C35.05817931 715.51362311 24.97183413 720.95304699 14.91740417 726.45306396 C4.86861521 731.94861046 -5.22505486 737.35915924 -15.32420349 742.7613678 C-15.91478546 743.07728378 -16.50536743 743.39319977 -17.11384583 743.71868896 C-18.00032303 744.19286507 -18.00032303 744.19286507 -18.90470886 744.67662048 C-24.01148088 747.4089799 -29.11397178 750.14923162 -34.21369934 752.89471436 C-36.35905852 754.04933643 -38.50536608 755.20219828 -40.65266418 756.35321045 C-46.12749005 759.29284137 -51.57531194 762.27209688 -56.99275208 765.31634521 C-58.08877747 765.92655518 -59.18480286 766.53676514 -60.31404114 767.16546631 C-62.40208756 768.32969688 -64.48386261 769.50527042 -66.55818176 770.69378662 C-67.49049622 771.21118408 -68.42281067 771.72858154 -69.38337708 772.26165771 C-70.60407898 772.95279663 -70.60407898 772.95279663 -71.84944153 773.65789795 C-75.65842659 775.04323437 -78.14103914 774.00874658 -81.71760559 772.35491943 C-83.04489685 771.62619629 -83.04489685 771.62619629 -84.39900208 770.88275146 C-85.41156067 770.33167725 -86.42411926 769.78060303 -87.46736145 769.21282959 C-89.10221497 768.31080811 -89.10221497 768.31080811 -90.77009583 767.39056396 C-92.52158244 766.43547644 -94.27307853 765.4804059 -96.02507019 764.52624512 C-97.85914273 763.52666214 -99.69180385 762.52452134 -101.52449036 761.5223999 C-107.39862897 758.31578851 -113.30486073 755.16914222 -119.20759583 752.01556396 C-128.21512665 747.19619452 -137.21464038 742.36207918 -146.20759583 737.51556396 C-159.86125518 730.15793143 -173.53355431 722.83522013 -187.20759583 715.51556396 C-201.95519463 707.62123716 -216.69776593 699.71786981 -231.42341614 691.78265381 C-244.00601606 685.00433456 -256.60710892 678.26055092 -269.20759583 671.51556396 C-283.95519463 663.62123716 -298.69776593 655.71786981 -313.42341614 647.78265381 C-326.00601606 641.00433456 -338.60710892 634.26055092 -351.20759583 627.51556396 C-365.95519463 619.62123716 -380.69776593 611.71786981 -395.42341614 603.78265381 C-408.00601606 597.00433456 -420.60710892 590.26055092 -433.20759583 583.51556396 C-447.95375055 575.62201017 -462.69513967 567.71989738 -477.41902161 559.78485107 C-485.3420853 555.51632599 -493.2731458 551.26287988 -501.20759583 547.01556396 C-511.27887787 541.62440058 -521.34162843 536.21767761 -531.39656067 530.79608154 C-537.09096097 527.7271004 -542.79006571 524.66726289 -548.49665833 521.62103271 C-549.73364242 520.96023465 -550.97062161 520.2994274 -552.20759583 519.63861084 C-554.52689252 518.39969929 -556.84733132 517.16302031 -559.16853333 515.92767334 C-565.36470641 512.61835362 -571.51309997 509.23790984 -577.63093567 505.78631592 C-578.7297834 505.16725246 -578.7297834 505.16725246 -579.85083008 504.53568268 C-581.63669964 503.52947498 -583.42218773 502.52259026 -585.20759583 501.51556396 C-585.29901298 470.83117264 -585.36972033 440.1468127 -585.41185714 409.46231756 C-585.41685946 405.83276796 -585.4220368 402.20321863 -585.42732239 398.57366943 C-585.42837163 397.85114701 -585.42942087 397.12862459 -585.43050191 396.38420755 C-585.44786701 384.71319438 -585.47938301 373.0422607 -585.51620701 361.37129456 C-585.55372524 349.37953066 -585.57585457 337.38780816 -585.5839498 325.39598799 C-585.58892698 318.66719436 -585.60131596 311.93859154 -585.63051605 305.20985413 C-585.65781754 298.86678216 -585.66601109 292.52396278 -585.66002655 286.18083763 C-585.66112021 283.86223665 -585.66898556 281.54362656 -585.68441772 279.22507668 C-585.82632107 256.79068474 -582.73920229 236.93190469 -567.20759583 219.51556396 C-566.66490051 218.90325928 -566.1222052 218.29095459 -565.56306458 217.66009521 C-558.30699284 209.96220178 -549.25482779 204.74890458 -539.89509583 200.01556396 C-538.90493469 199.50694824 -537.91477356 198.99833252 -536.89460754 198.4743042 C-534.76351571 197.37970544 -532.63098685 196.28790066 -530.49714661 195.19866943 C-527.22664269 193.52530933 -523.96399282 191.83760994 -520.70368958 190.14447021 C-504.76256632 181.86706067 -488.7772302 173.67646156 -472.78767395 165.49310303 C-461.63022891 159.78257128 -450.47781429 154.06242245 -439.33259583 148.32806396 C-438.26455719 147.7785759 -438.26455719 147.7785759 -437.17494202 147.21798706 C-432.8962198 145.01656103 -428.61773149 142.81468072 -424.33930969 140.6126709 C-417.87912856 137.28787688 -411.41848304 133.96398566 -404.95759583 130.64056396 C-403.88463257 130.08861359 -403.88463257 130.08861359 -402.78999329 129.5255127 C-390.2308129 123.06532652 -377.66385869 116.62036059 -365.09541321 110.17822266 C-353.95958013 104.47001906 -342.82985379 98.75017117 -331.70759583 93.01556396 C-318.92856528 86.42672914 -306.13819091 79.86023736 -293.34333801 73.30218506 C-281.79352168 67.3821673 -270.2479708 61.45396508 -258.70759583 55.51556396 C-246.33814788 49.15054171 -233.96221232 42.79828521 -221.58259583 36.45306396 C-208.95351974 29.979919 -196.3310691 23.49417338 -183.71815491 16.98959351 C-175.55862218 12.78185408 -167.39437261 8.5835141 -159.22322083 4.39837646 C-158.37586868 3.9642746 -157.52851654 3.53017273 -156.65548706 3.08291626 C-152.41182483 0.90905731 -148.16750088 -1.26349489 -143.92219543 -3.43414307 C-136.19305454 -7.38954821 -128.48804026 -11.37818148 -120.83796692 -15.48516846 C-75.19112251 -39.91434579 -42.03750852 -21.79832821 0 0 Z M-244.15290833 200.03118896 C-245.89507629 200.92064209 -245.89507629 200.92064209 -247.67243958 201.82806396 C-248.89270521 202.47349372 -250.11275769 203.11932662 -251.33259583 203.76556396 C-252.48630676 204.35853271 -253.6400177 204.95150146 -254.82868958 205.56243896 C-259.35400228 207.89027231 -263.85154011 210.27023173 -268.3506012 212.64828491 C-280.54084009 219.09098823 -292.78553409 225.41711627 -305.07356262 231.67132568 C-310.23187561 234.29714765 -315.3877432 236.92776139 -320.54353333 239.55853271 C-321.5543396 240.07426849 -322.56514587 240.59000427 -323.60658264 241.12136841 C-335.2469535 247.06310752 -346.86350691 253.0488908 -358.45222473 259.09075928 C-360.93758874 260.37594308 -363.43367733 261.63517247 -365.93806458 262.88275146 C-380.37704531 270.14748636 -389.93149847 279.35777509 -395.44587708 294.64447021 C-397.65579956 302.97417803 -397.34437415 311.45808984 -397.32112122 320.00970459 C-397.32083877 321.46899412 -397.3209982 322.92828379 -397.32156372 324.38757324 C-397.32184945 328.32913515 -397.31598907 332.27066634 -397.30898976 336.21222115 C-397.30271879 340.33884651 -397.30214947 344.46547266 -397.30096436 348.59210205 C-397.29786205 356.39752158 -397.28966355 364.20292702 -397.27961487 372.00834036 C-397.26841948 380.89831852 -397.26293466 389.78829737 -397.25791943 398.67828083 C-397.24747998 416.95738318 -397.22990193 435.23647244 -397.20759583 453.51556396 C-396.24767731 454.02319778 -395.28775879 454.5308316 -394.29875183 455.05384827 C-390.67091204 456.9725111 -387.04338342 458.89176165 -383.41593933 460.81117249 C-381.85836372 461.63524157 -380.3007084 462.45916002 -378.7429657 463.28291321 C-366.98659457 469.50001095 -355.26126059 475.77108184 -343.55915833 482.08978271 C-336.78378296 485.74755699 -329.99620301 489.3824335 -323.20759583 493.01556396 C-314.20091694 497.83654898 -305.2005606 502.66904372 -296.20759583 507.51556396 C-282.55393647 514.8731965 -268.88163734 522.1959078 -255.20759583 529.51556396 C-240.45999702 537.40989077 -225.71742572 545.31325812 -210.99177551 553.24847412 C-198.40917559 560.02679337 -185.80808273 566.77057701 -173.20759583 573.51556396 C-158.46953129 581.40478712 -143.73644765 589.30296553 -129.02033997 597.23309326 C-123.31073878 600.30889806 -117.59895908 603.38057801 -111.88337708 606.44525146 C-111.27175217 606.77330276 -110.66012726 607.10135406 -110.02996826 607.43934631 C-107.00394311 609.06171207 -103.97639122 610.6811086 -100.94563293 612.2946167 C-96.02863271 614.91550515 -91.12201757 617.5410057 -86.28572083 620.30853271 C-85.58922424 620.70121338 -84.89272766 621.09389404 -84.17512512 621.49847412 C-82.44005686 622.48174617 -80.71577019 623.48398201 -78.99275208 624.48822021 C-76.29082556 625.81269447 -76.29082556 625.81269447 -73.85749817 624.74334717 C-71.2119014 623.51755887 -68.61149291 622.24263201 -66.02400208 620.89837646 C-65.02586487 620.38033447 -64.02772766 619.86229248 -62.99934387 619.32855225 C-61.93369202 618.77151611 -60.86804016 618.21447998 -59.77009583 617.64056396 C-58.09717468 616.76827148 -58.09717468 616.76827148 -56.39045715 615.87835693 C-48.45784497 611.72770893 -40.57912366 607.4865292 -32.73127747 603.17816162 C-25.25049789 599.07292917 -17.7338046 595.03667097 -10.20759583 591.01556396 C-1.85452874 586.55134073 6.48466092 582.06372226 14.79240417 577.51556396 C24.80071725 572.03781627 34.85516532 566.64763091 44.91560364 561.26646423 C45.50658844 560.95034683 46.09757324 560.63422943 46.70646667 560.30853271 C47.59354813 559.83405449 47.59354813 559.83405449 48.49855042 559.34999084 C54.64400985 556.06185609 60.78142164 552.75884081 66.91740417 549.45306396 C68.51406921 548.59285645 68.51406921 548.59285645 70.14299011 547.715271 C72.28691254 546.56007591 74.43079285 545.40480266 76.57463074 544.24945068 C81.97985854 541.33686131 87.38618985 538.42632167 92.79240417 535.51556396 C94.95907607 534.348907 97.12574274 533.18224034 99.29240417 532.01556396 C112.29240417 525.01556396 112.29240417 525.01556396 115.54338074 523.26507568 C117.70683402 522.10011429 119.87024558 520.93507541 122.03361511 519.7699585 C127.49910448 516.8265596 132.96534569 513.8845728 138.43302917 510.94525146 C148.52662904 505.51750482 158.61297422 500.07808094 168.66740417 494.57806396 C176.93623178 490.05595421 185.23250234 485.58670126 193.54240417 481.14056396 C194.72583695 480.50718514 195.90926794 479.87380298 197.09269714 479.24041748 C199.46844374 477.96905162 201.84426369 476.69782293 204.22013855 475.42669678 C204.80915955 475.11156128 205.39818054 474.79642578 206.00505066 474.47174072 C207.19918596 473.83291667 208.39335931 473.19416371 209.58757019 472.55548096 C213.65751841 470.37861569 217.72531792 468.19777343 221.79240417 466.01556396 C222.82333191 465.46465088 223.85425964 464.91373779 224.91642761 464.34613037 C226.83715866 463.31451091 228.74938402 462.26679422 230.65008545 461.19872093 C233.79240417 459.51556396 233.79240417 459.51556396 236.94100952 458.18120766 C240.36033998 456.58819501 243.00031093 455.06411321 245.79240417 452.51556396 C247.53012342 447.71767018 247.3571184 443.00967409 247.21818542 437.97406006 C247.22135235 436.49658268 247.22975204 435.0191087 247.2429657 433.54168701 C247.26345273 429.53975626 247.20947345 425.54196133 247.1408577 421.54069471 C247.08048918 417.34017382 247.08540401 413.13969433 247.0821991 408.93881226 C247.06743975 401.87855979 247.00766409 394.81986524 246.91740417 387.76019287 C246.8021999 378.73179563 246.760531 369.70465647 246.74267578 360.67560387 C246.72667491 352.88027206 246.67666276 345.08520763 246.6212883 337.29007006 C246.60498941 334.80201235 246.59323735 332.31396377 246.58210754 329.82587814 C246.56232806 325.89386163 246.52117864 321.96257946 246.46435547 318.03092957 C246.4464762 316.59805074 246.43496015 315.16507411 246.4307251 313.73209 C246.38178349 300.1908071 243.91466644 287.03777737 234.79240417 276.51556396 C228.39006097 270.69811139 221.57438661 266.47080056 213.85490417 262.64056396 C212.01203905 261.70649081 210.16960829 260.77156029 208.32756042 259.83587646 C207.31886902 259.32693848 206.31017761 258.81800049 205.2709198 258.29364014 C201.12412711 256.17396782 197.00713783 254.00082043 192.89006042 251.82415771 C183.30730971 246.7635811 173.66622585 241.82154249 164.01054382 236.90185547 C159.09518899 234.39711592 154.18216789 231.88780587 149.26896667 229.37884521 C148.2913739 228.87971619 147.31378113 228.38058716 146.30656433 227.86633301 C138.06774819 223.65878989 129.83515785 219.43928026 121.61018372 215.20474243 C119.57410632 214.15687941 117.53715585 213.11072769 115.50016785 212.06463623 C110.01412501 209.24289942 104.54284815 206.4024204 99.13224792 203.43743896 C98.32497253 202.99706299 97.51769714 202.55668701 96.68595886 202.10296631 C95.28575277 201.3334418 93.89109426 200.55366457 92.50431824 199.76019287 C89.45404959 197.97626729 89.45404959 197.97626729 86.03947449 197.75286865 C82.91390644 198.8137416 79.90799339 200.11576329 76.89006042 201.44525146 C76.19795975 201.74684174 75.50585907 202.04843201 74.79278564 202.35916138 C73.2800323 203.01837791 71.76782249 203.6788428 70.25608826 204.34039307 C66.07256812 206.17007832 61.88387159 207.98781434 57.69474792 209.80462646 C56.36473755 210.38150208 56.36473755 210.38150208 55.00785828 210.97003174 C45.00541981 215.30085045 34.96316468 219.53644016 24.91740417 223.76556396 C21.12690171 225.36159099 17.33650094 226.95785876 13.54631042 228.55462646 C12.59317963 228.95616943 11.64004883 229.3577124 10.65803528 229.77142334 C3.51761599 232.78216351 -3.61435427 235.81241804 -10.74275208 238.85150146 C-11.78346863 239.2951001 -12.82418518 239.73869873 -13.8964386 240.19573975 C-18.88182155 242.32124992 -23.86631313 244.44882142 -28.84968567 246.57904053 C-33.3768121 248.51289287 -37.90998952 250.43202012 -42.44606018 252.3447876 C-45.3432985 253.57309626 -48.23242043 254.81950223 -51.12214661 256.06536865 C-53.0682856 256.890651 -55.01472835 257.71521751 -56.96150208 258.53900146 C-57.84192673 258.92375641 -58.72235138 259.30851135 -59.62945557 259.70492554 C-72.30204435 265.01082426 -82.23194354 263.40739675 -94.81282043 258.36517334 C-96.74911904 257.5390276 -98.68135826 256.7033182 -100.60993958 255.85931396 C-101.66891449 255.40481873 -102.7278894 254.95032349 -103.81895447 254.48205566 C-107.26455845 253.00133493 -110.70471255 251.50836908 -114.14509583 250.01556396 C-116.56774576 248.97253577 -118.99084795 247.93055748 -121.41438293 246.8895874 C-125.11092068 245.3017084 -128.8072237 243.7133065 -132.5017395 242.12072754 C-143.73455572 237.2799791 -154.9973409 232.5123925 -166.27009583 227.76556396 C-168.07800621 227.00339192 -169.88586766 226.24110375 -171.69367981 225.47869873 C-174.40247642 224.33634033 -177.11130649 223.19406207 -179.8203125 222.05220032 C-186.8246941 219.09973529 -193.82699244 216.14235762 -200.82868958 213.18353271 C-202.92040255 212.29973768 -205.01211801 211.41594855 -207.10383606 210.53216553 C-210.12851286 209.25417953 -213.15314252 207.97608273 -216.17759705 206.6975708 C-218.93741236 205.53099639 -221.69747642 204.36501241 -224.45759583 203.19915771 C-225.27308395 202.85426804 -226.08857208 202.50937836 -226.92877197 202.15403748 C-228.39854434 201.53344868 -229.87077711 200.91863592 -231.34605408 200.31124878 C-232.8892519 199.65163474 -234.39306725 198.90075888 -235.88288879 198.12811279 C-239.33515218 197.21845843 -241.0301222 198.40775217 -244.15290833 200.03118896 Z " fill="#000000" transform="translate(585.2075958251953,29.48443603515625)"/>
<path d="M0 0 C0.04687203 18.38581345 0.08206296 36.77161123 0.10362434 55.15747166 C0.113905 63.69574044 0.1279034 72.23397195 0.15087891 80.7722168 C0.17091167 88.2204648 0.18373972 95.66868579 0.18817699 103.11695999 C0.19076775 107.05501812 0.19678895 110.99299899 0.21146011 114.93103218 C0.2252009 118.65004254 0.22918995 122.36894503 0.22621536 126.08797836 C0.2270139 128.0782434 0.23768807 130.06849713 0.24884033 132.05873108 C0.19463196 156.18919848 -5.47238741 176.28425553 -22.1015625 194.2734375 C-26.90361743 198.97648098 -32.06796809 202.35956415 -37.92578125 205.55078125 C-38.70459152 205.97897659 -39.48340179 206.40717194 -40.28581238 206.8483429 C-49.35722194 211.79826411 -58.56643308 216.48073419 -67.78338623 221.15219116 C-72.99308492 223.79273128 -78.1972111 226.44422401 -83.40234375 229.09375 C-84.93124237 229.87137947 -84.93124237 229.87137947 -86.49102783 230.66471863 C-94.30296078 234.63946867 -102.09587095 238.64894179 -109.875 242.6875 C-121.31360788 248.6221436 -132.77821046 254.50481568 -144.25 260.375 C-156.71677962 266.75454064 -169.1784606 273.14355283 -181.625 279.5625 C-193.53343225 285.70361241 -205.4513517 291.82598338 -217.375 297.9375 C-229.83742967 304.32538643 -242.29692945 310.71888517 -254.75 317.125 C-255.82389984 317.67741867 -255.82389984 317.67741867 -256.91949463 318.24099731 C-261.94650189 320.82699701 -266.97328044 323.41344112 -272 326 C-277.74983805 328.95864818 -283.49978447 331.91708551 -289.25 334.875 C-289.96579224 335.24320862 -290.68158447 335.61141724 -291.41906738 335.99078369 C-303.93184836 342.42690104 -316.45181498 348.84895381 -328.97338867 355.26794434 C-340.56949892 361.21271312 -352.16215726 367.16413127 -363.75 373.125 C-364.82417175 373.67755463 -364.82417175 373.67755463 -365.92004395 374.24127197 C-370.94686835 376.82717964 -375.97346246 379.41353478 -381 382 C-386.02762967 384.58702719 -391.05533037 387.17391615 -396.08325195 389.76037598 C-397.52451454 390.50179393 -398.96575812 391.24324884 -400.40698242 391.98474121 C-408.95515295 396.38241914 -417.50655806 400.77370941 -426.0625 405.15625 C-426.90589432 405.58837296 -427.74928864 406.02049591 -428.61824036 406.4657135 C-432.82508487 408.62107165 -437.03250923 410.7752833 -441.2409668 412.92749023 C-449.25440188 417.02898807 -457.23960982 421.17260289 -465.18359375 425.40722656 C-485.72963918 436.3284115 -504.8895089 442.17848299 -528.29296875 437.14453125 C-538.80703052 433.89835623 -548.59170098 428.84938896 -558.38793945 423.90893555 C-560.53307725 422.82733525 -562.6812677 421.75201647 -564.83007812 420.67773438 C-573.14576351 416.50928585 -581.39707679 412.22926547 -589.62010193 407.88119507 C-598.29617672 403.30061482 -607.0342444 398.84327043 -615.77581787 394.38931274 C-620.72175437 391.86908999 -625.6655291 389.34463323 -630.609375 386.8203125 C-632.08257706 386.06821251 -632.08257706 386.06821251 -633.58554077 385.30091858 C-642.02529963 380.99066085 -650.45323344 376.65778713 -658.875 372.3125 C-670.6997091 366.21227692 -682.5341506 360.13133751 -694.375 354.0625 C-706.83745771 347.67466841 -719.29692954 341.28111478 -731.75 334.875 C-732.82389984 334.32258133 -732.82389984 334.32258133 -733.91949463 333.75900269 C-739.66187487 330.80499988 -745.4039445 327.85039352 -751.14599609 324.89575195 C-756.18051568 322.30521282 -761.21516347 319.71492308 -766.25 317.125 C-766.96579224 316.75679138 -767.68158447 316.38858276 -768.41906738 316.00921631 C-780.10796372 309.99687511 -791.80288948 303.99634227 -803.5 298 C-815.92065637 291.63274318 -828.33828667 285.25967363 -840.75 278.875 C-841.4661145 278.50663025 -842.182229 278.1382605 -842.92004395 277.75872803 C-848.6622412 274.80481702 -854.40412652 271.85029986 -860.14599609 268.89575195 C-865.18051568 266.30521282 -870.21517094 263.7149376 -875.25 261.125 C-876.32269135 260.57318558 -876.32269135 260.57318558 -877.41705322 260.01022339 C-888.32198453 254.4009536 -899.23237902 248.80239696 -910.14526367 243.20861816 C-943.81463258 225.9496274 -943.81463258 225.9496274 -959.70117188 217.73410034 C-963.42185144 215.81101983 -967.14980129 213.90291805 -970.8828125 212.00390625 C-981.52361449 206.55723467 -991.87573666 201.00256208 -1000 192 C-1000.59039063 191.42507813 -1001.18078125 190.85015625 -1001.7890625 190.2578125 C-1010.49086721 181.35442158 -1016.29087179 169.11271374 -1019 157 C-1019.17226829 156.26204854 -1019.34453657 155.52409708 -1019.52202511 154.76378345 C-1020.05551699 151.67898538 -1020.12285725 148.79727432 -1020.12025452 145.66618347 C-1020.12162918 144.38877289 -1020.12300385 143.1113623 -1020.12442017 141.79524231 C-1020.12088148 140.38717628 -1020.11724667 138.97911048 -1020.11352539 137.57104492 C-1020.1132432 136.08264162 -1020.11340187 134.59423818 -1020.1139679 133.10583496 C-1020.11425463 129.07112353 -1020.10837788 125.03644187 -1020.10139394 121.00173736 C-1020.09513982 116.78300487 -1020.09455497 112.56427169 -1020.09336853 108.34553528 C-1020.09026129 100.35939459 -1020.08205607 92.3732676 -1020.07201904 84.38713294 C-1020.06083907 75.29408426 -1020.0553427 66.20103493 -1020.05032361 57.10798109 C-1020.03987296 38.40531296 -1020.02228526 19.70265758 -1020 1 C-1016.49712761 2.38016069 -1013.15852408 3.88088746 -1009.81640625 5.6171875 C-1008.81859131 6.13506836 -1007.82077637 6.65294922 -1006.79272461 7.18652344 C-1005.72675049 7.7437207 -1004.66077637 8.30091797 -1003.5625 8.875 C-1002.44431885 9.45797852 -1001.3261377 10.04095703 -1000.17407227 10.64160156 C-992.33389313 14.74352377 -984.550977 18.94063617 -976.79614258 23.20117188 C-968.65304308 27.6666261 -960.4559587 32.02659695 -952.25 36.375 C-941.34193151 42.15654395 -930.45207329 47.96958997 -919.58691406 53.83154297 C-911.73241712 58.06899681 -903.86849717 62.28861923 -896 66.5 C-886.99336198 71.32106163 -877.99296501 76.15347963 -869 81 C-855.34634064 88.35763253 -841.67404152 95.68034383 -828 103 C-813.2524012 110.89432681 -798.50982989 118.79769416 -783.78417969 126.73291016 C-771.20157977 133.51122941 -758.6004869 140.25501304 -746 147 C-731.2524012 154.89432681 -716.50982989 162.79769416 -701.78417969 170.73291016 C-689.20157977 177.51122941 -676.6004869 184.25501304 -664 191 C-649.2524012 198.89432681 -634.50982989 206.79769416 -619.78417969 214.73291016 C-607.20157977 221.51122941 -594.6004869 228.25501304 -582 235 C-577.29146577 237.52045831 -572.58310772 240.04124506 -567.875 242.5625 C-566.72298096 243.17939697 -565.57096191 243.79629395 -564.3840332 244.43188477 C-557.46812639 248.13699107 -550.55716175 251.85110042 -543.65185547 255.57592773 C-541.45570214 256.75910173 -539.25814754 257.93967909 -537.05908203 259.11743164 C-532.27962906 261.67835578 -527.51853103 264.25836792 -522.80859375 266.9453125 C-521.63913208 267.60007568 -521.63913208 267.60007568 -520.44604492 268.26806641 C-519.03705375 269.05847991 -517.63649436 269.86422924 -516.24731445 270.68896484 C-513.25438951 272.34894609 -511.62549666 273.15598669 -508.24121094 272.31201172 C-504.62012643 270.84623075 -501.18682772 269.13502151 -497.75 267.2890625 C-497.06370514 266.9250383 -496.37741028 266.5610141 -495.6703186 266.18595886 C-493.444388 265.00358696 -491.22213718 263.81448364 -489 262.625 C-487.4511553 261.80009981 -485.9021633 260.97547614 -484.35302734 260.15112305 C-475.22877566 255.28960602 -466.13038729 250.3817726 -457.06640625 245.40869141 C-449.7375625 241.38915776 -442.37204507 237.43952246 -435 233.5 C-426.647032 229.03558928 -418.30774525 224.54815939 -410 220 C-399.99168693 214.52225231 -389.93723885 209.13206694 -379.87680054 203.75090027 C-378.99032333 203.27672417 -378.99032333 203.27672417 -378.0859375 202.79296875 C-377.19885605 202.31849052 -377.19885605 202.31849052 -376.29385376 201.83442688 C-370.14839433 198.54629213 -364.01098254 195.24327685 -357.875 191.9375 C-356.81055664 191.36402832 -355.74611328 190.79055664 -354.64941406 190.19970703 C-352.50549163 189.04451195 -350.36161132 187.88923869 -348.21777344 186.73388672 C-342.81254563 183.82129735 -337.40621432 180.9107577 -332 178 C-329.83332811 176.83334304 -327.66666144 175.66667637 -325.5 174.5 C-312.5 167.5 -312.5 167.5 -309.24902344 165.74951172 C-307.08557015 164.58455033 -304.92215859 163.41951145 -302.75878906 162.25439453 C-297.29329969 159.31099563 -291.82705848 156.36900883 -286.359375 153.4296875 C-276.26577514 148.00194085 -266.17942995 142.56251697 -256.125 137.0625 C-246.07414596 131.56582414 -235.978457 126.15406227 -225.8770752 120.7510376 C-225.28599976 120.43487488 -224.69492432 120.11871216 -224.0859375 119.79296875 C-223.49453979 119.4766449 -222.90314209 119.16032104 -222.29382324 118.83441162 C-216.14837537 115.54627936 -210.01097253 112.24327146 -203.875 108.9375 C-202.81055664 108.36402832 -201.74611328 107.79055664 -200.64941406 107.19970703 C-198.50549163 106.04451195 -196.36161132 104.88923869 -194.21777344 103.73388672 C-188.81254563 100.82129735 -183.40621432 97.9107577 -178 95 C-175.83332811 93.83334304 -173.66666144 92.66667637 -171.5 91.5 C-158.5 84.5 -158.5 84.5 -155.24902344 82.74951172 C-153.08557015 81.58455033 -150.92215859 80.41951145 -148.75878906 79.25439453 C-143.29329969 76.31099563 -137.82705848 73.36900883 -132.359375 70.4296875 C-122.26577514 65.00194085 -112.17942995 59.56251697 -102.125 54.0625 C-92.07414596 48.56582414 -81.978457 43.15406227 -71.8770752 37.7510376 C-71.28599976 37.43487488 -70.69492432 37.11871216 -70.0859375 36.79296875 C-69.49453979 36.4766449 -68.90314209 36.16032104 -68.29382324 35.83441162 C-58.94907669 30.83448921 -49.622076 25.80155056 -40.29248047 20.7734375 C-36.83258351 18.90982401 -33.37150251 17.04841948 -29.91015625 15.1875 C-28.73127205 14.55348633 -27.55239825 13.91945331 -26.37353516 13.28540039 C-24.1534067 12.09141487 -21.93304535 10.89786225 -19.71240234 9.70483398 C-18.70258301 9.16157471 -17.69276367 8.61831543 -16.65234375 8.05859375 C-15.69569824 7.54409668 -14.73905273 7.02959961 -13.75341797 6.49951172 C-10.3905814 4.66811057 -7.06195273 2.77950129 -3.74438477 0.86743164 C-2 0 -2 0 0 0 Z " fill="#000000" transform="translate(1020,636)"/>
<path d="M0 0 C1.2658493 -0.00852997 2.53169861 -0.01705994 3.83590698 -0.02584839 C5.23127759 -0.02514942 6.6266481 -0.02422639 8.02201843 -0.02310181 C9.49744506 -0.02908885 10.97286857 -0.03589481 12.44828796 -0.04345703 C16.45048431 -0.06110737 20.45259509 -0.06581203 24.45482659 -0.0670886 C26.9573526 -0.06851143 29.45985693 -0.07278353 31.96237755 -0.07808304 C40.69890597 -0.09658083 49.43537342 -0.10475405 58.17192078 -0.10317993 C66.30570195 -0.10197892 74.43921759 -0.1230738 82.57293159 -0.15466726 C89.56419503 -0.18085191 96.55537188 -0.1915463 103.54668397 -0.19026911 C107.7186903 -0.18976008 111.89046065 -0.19541063 116.06241798 -0.21662521 C119.98842783 -0.2360444 123.91397752 -0.23610727 127.84000397 -0.22159195 C129.27666842 -0.21950722 130.71336196 -0.22418477 132.14997673 -0.23631287 C141.14431794 -0.30729483 147.5220692 0.07026182 154.70829773 5.87289429 C161.29523826 13.74224802 162.16418001 21.86434294 162.0975399 31.8602066 C162.10190022 33.00417032 162.10626055 34.14813404 162.110753 35.32676333 C162.12171082 39.16424168 162.11128432 43.00136087 162.10096741 46.83883667 C162.10276096 49.61618751 162.10906511 52.39352408 162.11514914 55.1708684 C162.12597601 61.21153879 162.12566057 67.25212873 162.11800766 73.29280281 C162.10665845 82.27549721 162.11246234 91.25812376 162.12163258 100.24081771 C162.13743107 116.28403801 162.13606012 132.32722248 162.12739584 148.37044619 C162.11985079 162.41008951 162.11787832 176.44971969 162.12146378 190.48936462 C162.12169293 191.42045123 162.12192209 192.35153783 162.12215819 193.31083918 C162.12309219 197.09037173 162.12404739 200.86990427 162.12503748 204.6494368 C162.1342156 240.1082696 162.12589231 275.56707956 162.10974679 311.02590884 C162.09550985 342.53269616 162.09678373 374.03944712 162.11112976 405.54623413 C162.12719176 440.93998952 162.1335647 476.33372474 162.12429297 511.72748327 C162.12333081 515.50015099 162.12239229 519.27281872 162.12146378 523.04548645 C162.12122654 523.97442141 162.12098931 524.90335638 162.12074489 525.86044088 C162.11733169 539.89166156 162.12132476 553.92286765 162.12890244 567.9540863 C162.13747514 583.90734022 162.13534654 599.86055267 162.1190602 615.81380141 C162.11024486 624.74356133 162.10968565 633.67323149 162.12099873 642.6029891 C162.12772101 648.56649168 162.12354801 654.52992224 162.11048442 660.49341414 C162.10334273 663.89204164 162.10256524 667.29034397 162.11170237 670.68898875 C162.12079458 674.35104649 162.11149807 678.01261257 162.0975399 681.67464447 C162.1045634 682.7281532 162.1115869 683.78166193 162.11882323 684.86709517 C162.05925273 692.66073064 160.86664157 699.01682184 156.53251648 705.57992554 C150.21843339 711.61338272 143.38255131 713.3871737 134.78170776 713.40113831 C133.59158585 713.40540329 132.40146393 713.40966827 131.17527771 713.4140625 C129.87801758 713.41360931 128.58075745 713.41315613 127.2441864 713.41268921 C125.85743113 713.41568302 124.47067669 713.41908606 123.08392334 713.42286682 C119.32346715 713.43168906 115.56303373 713.43404421 111.8025682 713.43468261 C109.45080756 713.43539419 107.09905268 713.43753058 104.74729347 713.44017982 C96.5359676 713.44942781 88.32465794 713.45351545 80.11332703 713.45272827 C72.47041141 713.45212782 64.82756646 713.46267458 57.18466872 713.47847193 C50.61379325 713.4915674 44.04294081 713.49691132 37.4720524 713.49627286 C33.55162687 713.49601844 29.63126415 713.4988388 25.71085167 713.50945091 C22.02133379 713.51916556 18.33193831 713.51918811 14.642416 713.51193428 C12.65205159 713.51039796 10.6616871 713.51871188 8.67134094 713.52737427 C-0.99545303 713.4935449 -9.46547567 713.11414673 -16.69013977 705.84945679 C-20.67639496 701.32860177 -22.52884405 697.30159124 -22.53298318 691.2954585 C-22.54126241 689.81959295 -22.54126241 689.81959295 -22.5497089 688.31391194 C-22.54559827 687.23837889 -22.54148763 686.16284584 -22.53725243 685.05472088 C-22.5407585 683.90325432 -22.54426458 682.75178777 -22.54787689 681.56542829 C-22.55559633 678.35925186 -22.55433057 675.15322187 -22.54932135 671.94704461 C-22.54605913 668.46272643 -22.55433357 664.97843274 -22.5611397 661.49412233 C-22.57145686 655.38400161 -22.57428052 649.27391259 -22.57222748 643.16378403 C-22.56918195 634.07779015 -22.5774915 624.99183145 -22.58797673 615.90584441 C-22.6073374 598.73531277 -22.61294572 581.56479305 -22.61409084 564.39425179 C-22.61500926 551.13642674 -22.61912242 537.87860638 -22.6254921 524.62078285 C-22.62728713 520.80716732 -22.62906676 516.99355177 -22.63084185 513.17993623 C-22.63128395 512.2319118 -22.63172604 511.28388737 -22.63218154 510.30713492 C-22.64449314 483.63418866 -22.65238234 456.96124402 -22.65149498 430.28829479 C-22.65146382 429.28228164 -22.65143266 428.27626849 -22.65140056 427.2397701 C-22.65123434 422.14065442 -22.65103626 417.04153874 -22.65083115 411.94242307 C-22.65079126 410.92968537 -22.65075137 409.91694768 -22.65071027 408.87352096 C-22.65062939 406.82551791 -22.6505458 404.77751486 -22.65045949 402.72951181 C-22.64923378 370.8608652 -22.66424942 338.99226114 -22.69160461 307.12362671 C-22.72231142 271.33547694 -22.73953796 235.54735512 -22.73767817 199.75919133 C-22.7375289 195.94463273 -22.73743149 192.13007413 -22.73736954 188.31551552 C-22.73734623 187.37624508 -22.73732292 186.43697464 -22.7372989 185.46924145 C-22.7372373 170.33990571 -22.75002066 155.21060684 -22.76723407 140.08128207 C-22.78417006 124.88164227 -22.78618035 109.68205654 -22.77301542 94.48241254 C-22.76561272 85.44800919 -22.76932351 76.41376986 -22.7889001 67.37938381 C-22.80086871 61.34726926 -22.79834393 55.31527394 -22.78395911 49.28316493 C-22.77616959 45.8444559 -22.77471989 42.40606507 -22.79087381 38.96737804 C-22.80491504 35.26384162 -22.79447001 31.56116024 -22.77776146 27.85765362 C-22.78769782 26.78914406 -22.79763418 25.72063451 -22.80787164 24.61974588 C-22.7373321 17.25949005 -21.47600245 11.97108953 -16.53388977 6.24398804 C-15.97572571 5.79797241 -15.41756165 5.35195679 -14.84248352 4.89242554 C-14.28689758 4.43094116 -13.73131165 3.96945679 -13.15888977 3.49398804 C-8.84729741 0.67935186 -5.10536057 0.01557685 0 0 Z " fill="#000000" transform="translate(2165.279983520508,288.7325744628906)"/>
<path d="M0 0 C1.47572342 -0.00570816 2.95144244 -0.01267415 4.42715454 -0.02079773 C8.42101548 -0.038695 12.4146563 -0.03756728 16.40854526 -0.03185534 C19.74843958 -0.02875854 23.08829193 -0.0348614 26.42818028 -0.04089409 C34.31006607 -0.05492641 42.19184344 -0.0533888 50.07373047 -0.04199219 C58.19279813 -0.03051173 66.31153544 -0.04458825 74.43055958 -0.07138866 C81.41338179 -0.09357166 88.39610049 -0.10017721 95.37895542 -0.09431225 C99.54421056 -0.09094773 103.70925394 -0.093324 107.87447929 -0.11056328 C111.79232905 -0.126072 115.70969077 -0.12203385 119.62752151 -0.10325813 C121.06095476 -0.09958307 122.49442448 -0.10264907 123.92782402 -0.11314392 C132.86792283 -0.17357656 139.49100853 0.10669248 146.49438477 6.15014648 C147.1634082 6.98739258 147.1634082 6.98739258 147.84594727 7.84155273 C148.53817383 8.67493164 148.53817383 8.67493164 149.24438477 9.52514648 C151.74521322 13.35603339 152.72081088 16.82541854 152.72394693 21.37601978 C152.72946642 22.35993014 152.7349859 23.3438405 152.74067265 24.35756633 C152.73656201 25.43309938 152.73245137 26.50863243 152.72821617 27.61675739 C152.73172225 28.76822395 152.73522832 29.9196905 152.73884064 31.10604998 C152.74656008 34.31222641 152.74529431 37.5182564 152.7402851 40.72443366 C152.73702288 44.20875184 152.74529732 47.69304553 152.75210345 51.17735595 C152.76242061 57.28747666 152.76524427 63.39756568 152.76319122 69.50769424 C152.76014569 78.59368812 152.76845525 87.67964682 152.77894047 96.76563386 C152.79830114 113.9361655 152.80390946 131.10668522 152.80505459 148.27722649 C152.805973 161.53505154 152.81008616 174.79287189 152.81645584 188.05069542 C152.81825088 191.86431095 152.8200305 195.6779265 152.8218056 199.49154204 C152.82246874 200.91357869 152.82246874 200.91357869 152.82314528 202.36434335 C152.83545689 229.03728961 152.84334608 255.71023425 152.84245872 282.38318348 C152.84241199 283.8922032 152.84241199 283.8922032 152.84236431 285.43170817 C152.84219809 290.53082385 152.84200001 295.62993953 152.84179489 300.7290552 C152.841755 301.7417929 152.84171511 302.75453059 152.84167401 303.79795731 C152.84159314 305.84596036 152.84150954 307.89396341 152.84142323 309.94196647 C152.84019753 341.81061307 152.85521316 373.67921713 152.88256836 405.54785156 C152.91327516 441.33600134 152.93050171 477.12412315 152.92864192 512.91228694 C152.92849265 516.72684554 152.92839524 520.54140415 152.92833328 524.35596275 C152.92830997 525.29523319 152.92828667 526.23450364 152.92826265 527.20223682 C152.92820105 542.33157256 152.9409844 557.46087143 152.95819781 572.5901962 C152.97513381 587.789836 152.9771441 602.98942173 152.96397917 618.18906573 C152.95657647 627.22346909 152.96028726 636.25770841 152.97986385 645.29209446 C152.99183246 651.32420902 152.98930767 657.35620433 152.97492285 663.38831334 C152.96713333 666.82702237 152.96568363 670.2654132 152.98183756 673.70410023 C152.99587878 677.40763665 152.98543376 681.11031803 152.9687252 684.81382465 C152.97866156 685.88233421 152.98859792 686.95084376 152.99883538 688.05173239 C152.92838309 695.40288445 151.69059783 700.74664267 146.68969727 706.42749023 C145.83891602 707.09651367 145.83891602 707.09651367 144.97094727 707.77905273 C144.40375977 708.24053711 143.83657227 708.70202148 143.25219727 709.17749023 C137.67267769 713.01952783 132.10718889 713.5251732 125.42584229 713.54449463 C123.64293289 713.55305984 123.64293289 713.55305984 121.82400513 713.5617981 C119.88822098 713.56347488 119.88822098 713.56347488 117.91333008 713.56518555 C116.52967193 713.56981893 115.14601504 713.57484428 113.76235962 713.58023071 C110.01422959 713.59330647 106.26611743 713.59979019 102.51796818 713.60424137 C100.17238439 713.60717985 97.82680541 713.61128609 95.48122406 713.61574554 C88.13106156 713.62940765 80.78091014 713.63908065 73.43073583 713.64294744 C64.96706983 713.64742544 56.50356555 713.66496674 48.0399487 713.69394803 C41.4834591 713.71561401 34.92701483 713.72565433 28.37048984 713.72698855 C24.46115559 713.72803305 20.55197363 713.73386466 16.64267731 713.75180817 C12.96212739 713.76837428 9.28184285 713.77040336 5.60126877 713.76166916 C3.62082731 713.76054061 1.64039432 713.77419167 -0.33999634 713.78842163 C-8.6558052 713.74982461 -16.23870292 713.10883849 -23.40405273 708.59155273 C-31.3484178 700.41352988 -31.82861329 691.76391926 -31.78352833 680.94993687 C-31.78673481 679.80881536 -31.78994128 678.66769386 -31.79324493 677.49199292 C-31.80156356 673.658231 -31.79561399 669.82462454 -31.78974915 665.99085999 C-31.79166287 663.21850036 -31.79657665 660.44614783 -31.80134171 657.67379183 C-31.81010261 651.64093694 -31.81141622 645.60811601 -31.80783844 639.57525635 C-31.80253217 630.60415448 -31.80862595 621.63308549 -31.81692137 612.6619872 C-31.83216719 595.7081211 -31.83386587 578.75426993 -31.83139835 561.80039842 C-31.82956625 548.70998807 -31.83132355 535.61958263 -31.83562279 522.5291729 C-31.83622519 520.64901095 -31.83682638 518.768849 -31.83742639 516.88868706 C-31.83833363 514.05553149 -31.8392423 511.22237592 -31.84015874 508.38922036 C-31.84858909 482.04599715 -31.85292336 455.70277579 -31.84875202 429.35955143 C-31.84859565 428.36632443 -31.84843927 427.37309743 -31.84827816 426.34977264 C-31.84747236 421.31560979 -31.84662659 416.28144696 -31.84576485 411.24728412 C-31.84559377 410.24746816 -31.84542268 409.2476522 -31.84524641 408.21753879 C-31.84489975 406.19566838 -31.84455122 404.17379798 -31.84420082 402.15192758 C-31.83884259 370.68558387 -31.8467766 339.21926817 -31.86523438 307.75292969 C-31.88594346 272.40716027 -31.89667924 237.06140821 -31.89265889 201.71563238 C-31.89226354 197.94800437 -31.89190199 194.18037635 -31.89156151 190.41274834 C-31.89147078 189.48505002 -31.89138004 188.55735171 -31.89128656 187.60154133 C-31.89011992 173.58860736 -31.89677395 159.5756909 -31.90737343 145.56276131 C-31.91941302 129.62961481 -31.92099866 113.69650692 -31.90858326 97.76335985 C-31.90194497 88.84471146 -31.90360805 79.92615534 -31.91717178 71.0075143 C-31.92540056 65.05138716 -31.92273923 59.09532932 -31.91119651 53.13920785 C-31.90492442 49.74477139 -31.90502863 46.35066306 -31.91505984 42.95621348 C-31.92512072 39.29864301 -31.91678183 35.64156039 -31.90378284 31.98400974 C-31.91109219 30.93181951 -31.91840154 29.87962928 -31.92593238 28.79555449 C-31.86707276 20.83248643 -30.80393161 13.147727 -25.27905273 7.02905273 C-24.73764648 6.40256836 -24.19624023 5.77608398 -23.63842773 5.13061523 C-16.53051573 -0.68734237 -8.76916311 -0.030616 0 0 Z " fill="#000000" transform="translate(2591.529052734375,288.595947265625)"/>
<path d="M0 0 C1.46587137 -0.00570824 2.93173829 -0.01267426 4.39759827 -0.02079773 C8.364601 -0.03869411 12.33138211 -0.03756745 16.29841304 -0.03185534 C19.61593952 -0.02875841 22.93342374 -0.03486154 26.2509442 -0.04089409 C34.08009252 -0.05492612 41.90913169 -0.05338904 49.73828125 -0.04199219 C57.80281818 -0.03051177 65.86702252 -0.04458824 73.93151563 -0.07138866 C80.86762926 -0.09357222 87.80363869 -0.10017708 94.73978525 -0.09431225 C98.87709525 -0.09094786 103.01419208 -0.09332312 107.15147209 -0.11056328 C111.04305815 -0.12607289 114.9341529 -0.12203289 118.82571983 -0.10325813 C120.24947773 -0.09958332 121.67327235 -0.10264835 123.09699631 -0.11314392 C132.0488048 -0.17407069 138.39881234 0.23435535 145.55102539 6.00952148 C152.76976632 14.633681 153.00188326 23.59342361 152.95092773 34.50170898 C152.95500003 35.90713914 152.96034559 37.31256609 152.96685791 38.71798706 C152.98045923 42.5114067 152.97526284 46.30457979 152.96572065 50.09800339 C152.95808658 54.08161803 152.96518002 58.06521259 152.96987915 62.04882812 C152.97532584 68.73661052 152.96817371 75.4242933 152.95385742 82.11206055 C152.93753297 89.82666414 152.94282225 97.5410298 152.95933664 105.25562763 C152.97298257 111.89795361 152.97485602 118.54020828 152.96702063 125.18254375 C152.96236114 129.14152103 152.96167149 133.10038674 152.9716301 137.05935669 C152.98034291 140.78265559 152.97419989 144.50564992 152.95694733 148.22891617 C152.95113592 150.2345463 152.95996106 152.24020242 152.96932983 154.24581909 C152.9041746 163.57302351 152.04960976 171.89414938 145.39067745 178.9131546 C137.76039787 185.13655975 128.44493259 184.98164353 119.07617188 184.92163086 C117.64103489 184.92706191 116.20590348 184.93419005 114.77078247 184.94287109 C110.90091795 184.96098927 107.03148358 184.95408553 103.16161227 184.94135475 C99.09658644 184.93116891 95.0315954 184.94063566 90.96656799 184.94689941 C84.14349816 184.95415884 77.32060201 184.94463224 70.49755859 184.92553711 C62.62666365 184.90376282 54.75618314 184.91083049 46.88529819 184.93284273 C40.10705678 184.95103511 33.32893961 184.95353663 26.55068165 184.94308805 C22.51120629 184.93687526 18.47192531 184.93595625 14.43246269 184.94923401 C10.6343764 184.9608484 6.83682102 184.95266604 3.03879166 184.92965698 C1.65093553 184.92439989 0.26303416 184.9258319 -1.12480354 184.93470764 C-10.57734446 184.98955478 -17.74218023 184.16011324 -25.24975586 178.15405273 C-31.7846689 169.93873348 -32.02225752 162.97861468 -31.97070312 152.77734375 C-31.97776989 151.30309184 -31.98651808 149.82884718 -31.99681091 148.35461426 C-32.01923027 144.36895376 -32.01638278 140.38369176 -32.00748944 136.39799237 C-32.00236351 133.06310162 -32.00968511 129.7282847 -32.01696151 126.39340156 C-32.03393691 118.5224554 -32.03041864 110.65170323 -32.01367188 102.78076172 C-31.99675195 94.67695554 -32.01258839 86.57368808 -32.04489475 78.46994072 C-32.071636 71.49640768 -32.07885449 64.52304188 -32.07037967 57.54946274 C-32.06546373 53.39141532 -32.0675934 49.23369191 -32.08816719 45.0756855 C-32.10659601 41.16428378 -32.10047898 37.25365368 -32.07596779 33.34229279 C-32.07098258 31.91250679 -32.07438988 30.48266125 -32.08711624 29.0529232 C-32.15587786 20.65960867 -31.69979546 14.19435997 -26.43725586 7.40405273 C-18.74320673 -0.2899964 -10.26400464 -0.03608058 0 0 Z " fill="#EF7528" transform="translate(2174.437255859375,45.595947265625)"/>
<path d="M0 0 C1.46262762 -0.00734726 2.92524945 -0.0159354 4.38786316 -0.02566528 C8.34672317 -0.04782322 12.30537468 -0.05081478 16.26428819 -0.04891777 C19.57665804 -0.04879778 22.88898417 -0.05737364 26.20134181 -0.06569529 C34.02097649 -0.08490952 41.84050443 -0.08782073 49.66015625 -0.08105469 C57.7088068 -0.0744182 65.75699858 -0.09726678 73.80555612 -0.13436842 C80.73151299 -0.16512874 87.65732278 -0.17641852 94.58334655 -0.1725316 C98.71295514 -0.17047029 102.84220677 -0.17584687 106.97175026 -0.20042419 C110.85849371 -0.22279347 114.74449499 -0.22073018 118.63124275 -0.20049667 C120.05094233 -0.19710426 121.47069285 -0.20209893 122.89032364 -0.21648026 C131.43224556 -0.29698508 138.52570071 0.24646365 145.59448242 5.41992188 C150.62292178 10.81524632 152.71275556 15.0185405 152.74165344 22.45939636 C152.7523864 24.35404633 152.7523864 24.35404633 152.76333618 26.28697205 C152.76617644 27.68960547 152.76888817 29.09223915 152.77148438 30.49487305 C152.77774998 31.97000285 152.78439686 33.44513107 152.79139709 34.92025757 C152.81243109 39.76779076 152.82279989 44.61532423 152.83276367 49.46289062 C152.83681169 51.13277007 152.84092862 52.80264935 152.84511375 54.47252846 C152.86416517 62.3192547 152.87839545 70.16597155 152.88672572 78.01271647 C152.8964938 87.06396794 152.92280221 96.11497457 152.96322662 105.16613978 C152.99341341 112.16584484 153.00819709 119.16547982 153.01150674 126.16524869 C153.01385461 130.34400726 153.02278034 134.52250425 153.04796791 138.70119286 C153.07129824 142.63536328 153.07546216 146.56910085 153.06520653 150.5033226 C153.06471223 151.94321828 153.07100135 153.38313562 153.08476257 154.82296562 C153.17148623 164.43886161 152.50120039 170.50861928 146.40698242 178.16992188 C138.30007018 184.65545167 130.33142817 185.00205569 120.23730469 184.9375 C118.8039377 184.94292949 117.37057631 184.95005677 115.93722534 184.95874023 C112.06723472 184.97688023 108.19767359 184.96994462 104.32767606 184.95722389 C100.26311221 184.94704558 96.19858335 184.95650309 92.13401794 184.96276855 C85.30916798 184.9700318 78.48449154 184.96049301 71.65966797 184.94140625 C63.7893817 184.91964869 55.91951017 184.92668593 48.04923397 184.94871187 C41.27184635 184.96691418 34.49458296 184.96940043 27.71717876 184.9589572 C23.67821555 184.95274758 19.63944671 184.95181615 15.60049629 184.96510315 C11.80077894 184.97673142 8.00159161 184.96851026 4.201931 184.94552612 C2.81449573 184.94027559 1.4270152 184.94168953 0.03959846 184.95057678 C-8.69924881 185.00135647 -17.17785731 184.68370375 -24.23345089 178.92902374 C-31.8974296 170.85062557 -31.84305114 160.8868412 -31.79370117 150.32226562 C-31.79777347 148.91683547 -31.80311902 147.51140852 -31.80963135 146.10598755 C-31.82323267 142.31256791 -31.81803628 138.51939481 -31.80849409 134.72597122 C-31.80086002 130.74235658 -31.80795346 126.75876202 -31.81265259 122.77514648 C-31.81809928 116.08736408 -31.81094715 109.39968131 -31.79663086 102.71191406 C-31.7803064 94.99731047 -31.78559568 87.28294481 -31.80211008 79.56834698 C-31.81575601 72.926021 -31.81762946 66.28376633 -31.80979407 59.64143085 C-31.80513458 55.68245358 -31.80444493 51.72358787 -31.81440353 47.76461792 C-31.82311635 44.04131902 -31.81697333 40.31832469 -31.79972076 36.59505844 C-31.79390936 34.58942831 -31.8027345 32.58377219 -31.81210327 30.57815552 C-31.7518429 21.95166861 -31.18466079 13.72205711 -25.15551758 7.04492188 C-24.61411133 6.4184375 -24.07270508 5.79195312 -23.51489258 5.14648438 C-16.44079249 -0.64379755 -8.72902446 -0.02073082 0 0 Z " fill="#349EBA" transform="translate(2591.405517578125,45.580078125)"/>
</svg>
